<?xml version="1.0" standalone="no"?><!DOCTYPE svg PUBLIC "-//W3C//DTD SVG 1.1//EN" "http://www.w3.org/Graphics/SVG/1.1/DTD/svg11.dtd"><svg t="1676365862742" class="icon" viewBox="0 0 1024 1024" version="1.1" xmlns="http://www.w3.org/2000/svg" p-id="3259" xmlns:xlink="http://www.w3.org/1999/xlink" width="200" height="200"><path d="M848 320a32 32 0 0 1 32 32v320a32 32 0 0 1-32 32H176a32 32 0 0 1-32-32V352a32 32 0 0 1 32-32h672zM498.816 490.112H294.528l-2.816 19.456h9.984l-7.936 55.552-9.728 0.512-3.584 24.32 64-4.352-1.28 8.704h38.912l11.776-84.736H496l2.816-19.456z m-8.704 26.88H400l-2.56 19.456-1.024 7.168 20.992 23.04-33.024 27.648h41.472l9.472-7.936 7.424 7.936h41.472l-25.344-27.648 27.648-23.04 3.584-26.624z m251.648-107.008l-91.904 14.592-24.064 169.728h36.352l14.336-101.632h12.032l-14.336 101.632h36.608l14.336-101.632h9.728l3.584-24.32h-58.368l3.584-25.344 54.528-8.704 3.584-24.32zM572.544 453.76h-34.048l3.072 14.592h-17.152l-3.584 24.32h36.608l-1.024 7.424h-31.744l-3.328 24.32h31.744l-7.936 55.296-14.336 14.592h33.536c4.96 0 9.344-1.584 13.184-4.736 3.2-2.624 5.36-5.888 6.496-9.76l0.544-2.4 7.424-52.992h31.488l3.328-24.32h-31.488l1.024-7.424h36.352l3.584-24.32h-17.152l7.168-14.592h-34.048l-7.168 14.592h-9.472l-3.072-14.592z m47.36 77.824h-24.32l0.512 48.64h24.32l-0.512-48.64z m-72.704 0h-24.32l-14.336 48.64h24.32l14.336-48.64z m-198.4 21.76l-1.024 7.936-14.592 1.024 1.28-8.96h14.336z m104.704-16.896l-12.544 10.496-9.472-10.496h22.016z m-101.632-4.864l-1.024 7.168h-14.336l1.024-7.168h14.336z m3.072-22.016l-1.024 7.424h-14.336l1.024-7.424h14.336z m139.776-94.72H310.144l8.192 9.472-8.192 58.624h175.104l9.472-68.096z m-54.272 41.216l-1.024 7.424H361.6l1.024-7.424h77.824z m167.68-46.08h-46.336l6.4 7.424-1.024 7.168h-31.744l-3.584 24.32h102.144l3.584-24.32H606.08l2.048-14.592zM443.52 434.048l-1.024 7.168h-77.824l1.024-7.168h77.824z" fill="#d81e06" p-id="3260"></path></svg>